<svg xmlns="http://www.w3.org/2000/svg" width="260" height="260" viewBox="0 0 260 260">
  <g id="Group_1" data-name="Group 1" transform="translate(-295 -256)">
    <rect id="Rectangle_1" data-name="Rectangle 1" width="260" height="260" transform="translate(295 256)" fill="rgba(198,193,164,0.55)"/>
    <text id="E_" data-name="E " transform="translate(349 368)" fill="#fff" font-size="80" font-family="Helvetica"><tspan x="0" y="0">E </tspan></text>
    <path id="E_-_Outline" data-name="E  - Outline" d="M6.336-57.883H49.172v8.031H14.914V-33.43h31.68v7.641H14.914V-7.336H49.758V.5H6.336Zm41.836,1H7.336V-.5H48.758V-6.336H13.914V-26.789h31.68V-32.43H13.914V-50.852H48.172Z" transform="translate(349 368)"/>
    <text id="S" transform="translate(444 455)" font-size="70" font-family="Helvetica"><tspan x="0" y="0">S</tspan></text>
    <path id="S_-_Outline" data-name="S - Outline" d="M23.242,1.97a27.493,27.493,0,0,1-8.5-1.221A17.862,17.862,0,0,1,8.244-2.944,15.5,15.5,0,0,1,4.168-8.725a19.291,19.291,0,0,1-1.284-7.482L2.89-16.7h7.358l.026.472A13.3,13.3,0,0,0,12.208-9.54a9.841,9.841,0,0,0,4.451,3.559,18.392,18.392,0,0,0,7.062,1.209,20.715,20.715,0,0,0,6.808-1.066,9.36,9.36,0,0,0,4.337-2.8,6.714,6.714,0,0,0,1.411-4.319c0-2.58-.766-4.356-2.341-5.429a25.568,25.568,0,0,0-7.968-2.9l-6.8-1.538c-4.481-1.011-7.71-2.15-9.6-3.385C6.244-28.393,4.559-31.7,4.559-36.025A15.017,15.017,0,0,1,9.4-47.5a15.667,15.667,0,0,1,5.841-3.364A25.04,25.04,0,0,1,23-51.975a23.626,23.626,0,0,1,13.7,3.9,12.4,12.4,0,0,1,4.311,5.157,17.987,17.987,0,0,1,1.425,7.44v.5H35.106l-.056-.437a12.164,12.164,0,0,0-2.086-5.943,8.925,8.925,0,0,0-3.975-2.786A17.9,17.9,0,0,0,22.8-45.1c-3.858,0-6.651.8-8.3,2.39a7.373,7.373,0,0,0-2.478,5.518,5.232,5.232,0,0,0,2.817,4.962c1.3.7,4.327,1.608,9,2.686l7.04,1.606a22.153,22.153,0,0,1,8.044,3.262c3.312,2.437,4.991,6.011,4.991,10.624,0,5.723-2.124,9.881-6.312,12.359A27.786,27.786,0,0,1,23.242,1.97ZM3.883-15.7A18.011,18.011,0,0,0,5.1-9.1,14.515,14.515,0,0,0,8.913-3.688,16.872,16.872,0,0,0,15.049-.2,26.5,26.5,0,0,0,23.242.97,26.8,26.8,0,0,0,37.087-2.549a11.146,11.146,0,0,0,4.359-4.573,15.2,15.2,0,0,0,1.462-6.925,13.351,13.351,0,0,0-1.149-5.693,10.764,10.764,0,0,0-3.432-4.124,21.2,21.2,0,0,0-7.676-3.094l-7.041-1.606c-4.83-1.115-7.856-2.025-9.253-2.782l0,0a6.234,6.234,0,0,1-3.333-5.837A8.432,8.432,0,0,1,13.8-43.427a8.8,8.8,0,0,1,3.684-2.016A19.142,19.142,0,0,1,22.8-46.1a18.876,18.876,0,0,1,6.54,1.014,9.911,9.911,0,0,1,4.413,3.106,12.708,12.708,0,0,1,2.232,6h5.45a16.629,16.629,0,0,0-1.33-6.527,11.418,11.418,0,0,0-3.969-4.747,20.167,20.167,0,0,0-5.966-2.789A26.265,26.265,0,0,0,23-50.975a24.05,24.05,0,0,0-7.449,1.06,14.675,14.675,0,0,0-5.472,3.147A13.825,13.825,0,0,0,6.69-41.992a15.285,15.285,0,0,0-1.131,5.967A11.481,11.481,0,0,0,6.7-30.775a9.764,9.764,0,0,0,3.418,3.731c1.786,1.169,4.9,2.261,9.269,3.246l6.8,1.538a26.469,26.469,0,0,1,8.3,3.044l.006,0c1.846,1.255,2.782,3.361,2.782,6.258,0,3.865-2.16,6.576-6.42,8.06a21.71,21.71,0,0,1-7.137,1.122,19.371,19.371,0,0,1-7.448-1.286,10.827,10.827,0,0,1-4.895-3.923A13.932,13.932,0,0,1,9.308-15.7Z" transform="translate(444 455)" fill="snow"/>
  </g>
</svg>
